<?xml version="1.0" encoding="utf-8"?>
<!-- Generator: Adobe Illustrator 23.0.1, SVG Export Plug-In . SVG Version: 6.00 Build 0)  -->
<svg version="1.1" id="e4fde902-34f0-42ac-83bb-70aac2088463"
	 xmlns="http://www.w3.org/2000/svg" xmlns:xlink="http://www.w3.org/1999/xlink" x="0px" y="0px" viewBox="0 0 855.4 610.8"
	 style="enable-background:new 0 0 855.4 610.8;" xml:space="preserve">
<style type="text/css">
	.st0{fill:#E6E6E6;stroke:#000000;stroke-width:0.25;stroke-miterlimit:10;}
	.st1{fill:#00BFA6;}
	.st2{fill:#E6E6E6;}
	.st3{fill:#E6E6E6;stroke:#000000;stroke-width:0.5;stroke-miterlimit:10;}
	.st4{fill:#3F3D56;}
	.st5{fill:#FFFFFF;}
</style>
<circle class="st0" cx="39.5" cy="110.7" r="13.6"/>
<circle class="st0" cx="80.4" cy="110.7" r="13.6"/>
<circle class="st0" cx="121.3" cy="110.7" r="13.6"/>
<circle class="st0" cx="162.2" cy="110.7" r="13.6"/>
<circle class="st0" cx="203.1" cy="110.7" r="13.6"/>
<circle class="st0" cx="244" cy="110.7" r="13.6"/>
<circle class="st0" cx="284.9" cy="110.7" r="13.6"/>
<path class="st0" d="M316.4,127.3H8c-3.1,0-5.5-2.5-5.5-5.5V99.7c0-3.1,2.5-5.5,5.5-5.5h308.3c3.1,0,5.5,2.5,5.5,5.5v22.1
	C321.9,124.8,319.4,127.3,316.4,127.3z M8,96.3c-1.8,0-3.3,1.5-3.3,3.3v22.1c0,1.8,1.5,3.3,3.3,3.3h308.3c1.8,0,3.3-1.5,3.3-3.3v-22
	c0-1.8-1.5-3.3-3.3-3.3L8,96.3z"/>
<path class="st0" d="M74,3.2c1.8,0,3.2,1.4,3.2,3.2v69.1c0,1.8-1.4,3.2-3.2,3.2H6.4c-1.8,0-3.2-1.4-3.2-3.2V6.4
	c0-1.8,1.4-3.2,3.2-3.2H74 M74,0H6.4C2.9,0,0,2.9,0,6.4v69.1c0,3.5,2.9,6.4,6.4,6.4H74c3.5,0,6.4-2.9,6.4-6.4V6.4
	C80.4,2.9,77.5,0,74,0L74,0z"/>
<path class="st1" d="M63.5,21.3H18.3c-0.9,0-1.6-0.7-1.6-1.6s0.7-1.6,1.6-1.6l0,0h45.1c0.9,0,1.6,0.7,1.6,1.6
	C65.1,20.6,64.4,21.3,63.5,21.3L63.5,21.3L63.5,21.3z"/>
<path class="st1" d="M63.5,32.6H18.3c-0.9,0-1.6-0.7-1.6-1.6s0.7-1.6,1.6-1.6l0,0h45.1c0.9,0,1.6,0.7,1.6,1.6
	C65.1,31.9,64.4,32.6,63.5,32.6L63.5,32.6L63.5,32.6z"/>
<path class="st1" d="M63.5,43.9H18.3c-0.9,0-1.6-0.7-1.6-1.6c0-0.9,0.7-1.6,1.6-1.6l0,0h45.1c0.9,0,1.6,0.7,1.6,1.6
	C65.1,43.2,64.4,43.9,63.5,43.9L63.5,43.9L63.5,43.9z"/>
<path class="st1" d="M63.5,55.2H18.3c-0.9,0-1.6-0.7-1.6-1.6c0-0.9,0.7-1.6,1.6-1.6l0,0h45.1c0.9,0,1.6,0.7,1.6,1.6
	C65.1,54.5,64.4,55.2,63.5,55.2L63.5,55.2L63.5,55.2z"/>
<path class="st1" d="M63.5,66.5H18.3c-0.9,0-1.6-0.7-1.6-1.6s0.7-1.6,1.6-1.6l0,0h45.1c0.9,0,1.6,0.7,1.6,1.6
	C65.1,65.8,64.4,66.5,63.5,66.5L63.5,66.5z"/>
<path class="st0" d="M305.1,3.2c1.8,0,3.2,1.4,3.2,3.2v69.1c0,1.8-1.4,3.2-3.2,3.2h-67.7c-1.8,0-3.2-1.4-3.2-3.2V6.4
	c0-1.8,1.4-3.2,3.2-3.2H305.1 M305.1,0h-67.7c-3.5,0-6.4,2.9-6.4,6.4l0,0v69.1c0,3.5,2.9,6.4,6.4,6.4l0,0h67.7
	c3.5,0,6.4-2.9,6.4-6.4l0,0V6.4C311.5,2.9,308.6,0,305.1,0L305.1,0L305.1,0z"/>
<path class="st1" d="M294.5,21.3h-45.1c-0.9,0-1.6-0.7-1.6-1.6s0.7-1.6,1.6-1.6l0,0h45.1c0.9,0,1.6,0.7,1.6,1.6
	C296.1,20.6,295.4,21.3,294.5,21.3L294.5,21.3z"/>
<path class="st1" d="M294.5,32.6h-45.1c-0.9,0-1.6-0.7-1.6-1.6s0.7-1.6,1.6-1.6l0,0h45.1c0.9,0,1.6,0.7,1.6,1.6
	C296.1,31.9,295.4,32.6,294.5,32.6L294.5,32.6z"/>
<path class="st1" d="M294.5,43.9h-45.1c-0.9,0-1.6-0.7-1.6-1.6s0.7-1.6,1.6-1.6l0,0h45.1c0.9,0,1.6,0.7,1.6,1.6
	S295.4,43.9,294.5,43.9L294.5,43.9z"/>
<path class="st1" d="M294.5,55.2h-45.1c-0.9,0-1.6-0.7-1.6-1.6s0.7-1.6,1.6-1.6l0,0h45.1c0.9,0,1.6,0.7,1.6,1.6
	S295.4,55.2,294.5,55.2L294.5,55.2z"/>
<path class="st1" d="M294.5,66.5h-45.1c-0.9,0-1.6-0.7-1.6-1.6s0.7-1.6,1.6-1.6l0,0h45.1c0.9,0,1.6,0.7,1.6,1.6
	S295.4,66.5,294.5,66.5L294.5,66.5z"/>
<path class="st1" d="M535,136c1.8,0,3.2,1.4,3.2,3.2v69.1c0,1.8-1.4,3.2-3.2,3.2h-67.7c-1.8,0-3.2-1.4-3.2-3.2v-69.1
	c0-1.8,1.4-3.2,3.2-3.2L535,136 M535,132.8h-67.7c-3.5,0-6.4,2.9-6.4,6.4v69.1c0,3.5,2.9,6.4,6.4,6.4H535c3.5,0,6.4-2.9,6.4-6.4
	v-69.1C541.4,135.6,538.5,132.8,535,132.8L535,132.8z"/>
<path class="st1" d="M524.5,154.1h-45.1c-0.9,0-1.6-0.7-1.6-1.6c0-0.9,0.7-1.6,1.6-1.6l0,0h45.1c0.9,0,1.6,0.7,1.6,1.6
	C526.1,153.4,525.3,154.1,524.5,154.1z"/>
<path class="st1" d="M524.5,165.4h-45.1c-0.9,0-1.6-0.7-1.6-1.6s0.7-1.6,1.6-1.6h45.1c0.9,0,1.6,0.7,1.6,1.6
	S525.4,165.4,524.5,165.4z"/>
<path class="st1" d="M524.5,176.7h-45.1c-0.9,0-1.6-0.7-1.6-1.6s0.7-1.6,1.6-1.6l0,0h45.1c0.9,0,1.6,0.7,1.6,1.6
	S525.3,176.7,524.5,176.7z"/>
<path class="st1" d="M524.5,188h-45.1c-0.9,0-1.6-0.7-1.6-1.6c0-0.9,0.7-1.6,1.6-1.6l0,0h45.1c0.9,0,1.6,0.7,1.6,1.6
	S525.3,188,524.5,188z"/>
<path class="st1" d="M524.5,199.3h-45.1c-0.9,0-1.6-0.7-1.6-1.6c0-0.9,0.7-1.6,1.6-1.6l0,0h45.1c0.9,0,1.6,0.7,1.6,1.6
	S525.3,199.3,524.5,199.3z"/>
<path class="st0" d="M190.4,81.8H121c-3.9,0-7.1-3.2-7.1-7.1V25.1c0-3.9,3.2-7.1,7.1-7.1h69.4c3.9,0,7.1,3.2,7.1,7.1v49.7
	C197.5,78.6,194.4,81.8,190.4,81.8z M121,21.2c-2.1,0-3.9,1.7-3.9,3.9v49.7c0,2.1,1.7,3.9,3.9,3.9h69.4c2.1,0,3.9-1.7,3.9-3.9V25.1
	c0-2.2-1.7-3.9-3.9-3.9H121z"/>
<path class="st1" d="M178.3,40.2h-45.1c-0.9,0-1.6-0.7-1.6-1.6c0-0.9,0.7-1.6,1.6-1.6h45.1c0.9,0,1.6,0.7,1.6,1.6
	S179.2,40.2,178.3,40.2L178.3,40.2z"/>
<path class="st1" d="M178.3,51.5h-45.1c-0.9,0-1.6-0.7-1.6-1.6c0-0.9,0.7-1.6,1.6-1.6h45.1c0.9,0,1.6,0.7,1.6,1.6
	S179.2,51.5,178.3,51.5L178.3,51.5z"/>
<path class="st1" d="M178.3,62.8h-45.1c-0.9,0-1.6-0.7-1.6-1.6c0-0.9,0.7-1.6,1.6-1.6h45.1c0.9,0,1.6,0.7,1.6,1.6
	S179.2,62.8,178.3,62.8L178.3,62.8z"/>
<path class="st0" d="M420.8,109.3L354.1,90c-3.8-1.1-5.9-5-4.8-8.8l13.8-47.7c1.1-3.8,5-5.9,8.8-4.8L438.6,48c3.8,1.1,5.9,5,4.8,8.8
	l-13.8,47.7C428.5,108.3,424.6,110.4,420.8,109.3z M371,31.7c-2.1-0.6-4.2,0.6-4.8,2.7l-13.8,47.7c-0.6,2.1,0.6,4.2,2.7,4.8
	l66.7,19.3c2.1,0.6,4.2-0.6,4.8-2.7l13.8-47.7c0.6-2.1-0.6-4.2-2.7-4.8L371,31.7z"/>
<path class="st1" d="M420.7,66l-43.4-12.6c-0.8-0.2-1.3-1.1-1.1-2s1.1-1.3,2-1.1l43.4,12.6c0.8,0.2,1.3,1.1,1.1,2
	C422.5,65.8,421.6,66.2,420.7,66L420.7,66z"/>
<path class="st1" d="M417.6,76.8l-43.4-12.6c-0.8-0.2-1.3-1.1-1.1-2c0.2-0.8,1.1-1.3,2-1.1l43.4,12.6c0.8,0.2,1.3,1.1,1.1,2
	S418.4,77.1,417.6,76.8L417.6,76.8z"/>
<path class="st1" d="M414.4,87.7L371,75.1c-0.8-0.2-1.3-1.1-1.1-2s1.1-1.3,2-1.1l43.4,12.6c0.8,0.2,1.3,1.1,1.1,2
	C416.2,87.4,415.3,87.9,414.4,87.7z"/>
<rect x="156.1" y="607.8" class="st2" width="699.3" height="3"/>
<polygon class="st3" points="562.1,603.1 448.4,603.1 452.3,553 558.3,553 "/>
<rect x="442.6" y="597.3" class="st3" width="127.2" height="11.6"/>
<path class="st4" d="M723.1,230.1H288.4c-6.4,0-11.6,5.2-11.6,11.6l0,0v265h457.8v-265C734.6,235.3,729.5,230.1,723.1,230.1
	L723.1,230.1z"/>
<path class="st3" d="M276.9,506.7v43.4c0,6.4,5.2,11.6,11.6,11.6l0,0h434.6c6.4,0,11.6-5.2,11.6-11.6l0,0v-43.4L276.9,506.7
	L276.9,506.7z"/>
<rect x="300" y="254.2" class="st2" width="412.5" height="231.3"/>
<ellipse transform="matrix(0.9239 -0.3827 0.3827 0.9239 -165.706 234.34)" class="st4" cx="506.2" cy="533.7" rx="11.6" ry="11.6"/>
<circle class="st5" cx="312.9" cy="261.8" r="2.2"/>
<circle class="st5" cx="321.2" cy="261.8" r="2.2"/>
<circle class="st5" cx="329.5" cy="261.8" r="2.2"/>
<rect x="310.7" y="269.3" class="st5" width="389.9" height="194.2"/>
<path class="st2" d="M336.6,298.8c-0.8,0-1.4,0.6-1.4,1.4v69.7c0,0.8,0.6,1.4,1.4,1.4h80.5c0.8,0,1.4-0.6,1.4-1.4v-69.7
	c0-0.8-0.6-1.4-1.4-1.4L336.6,298.8L336.6,298.8z"/>
<path class="st2" d="M465.8,299c-0.8,0-1.4,0.6-1.4,1.4v69.5c0,0.8,0.6,1.4,1.4,1.4H546c0.8,0,1.4-0.6,1.4-1.4v-69.5
	c0-0.8-0.6-1.4-1.4-1.4H465.8z"/>
<path class="st2" d="M593.6,298.3c-0.8,0-1.4,0.6-1.4,1.4v70.2c0,0.8,0.6,1.4,1.4,1.4h81c0.8,0,1.4-0.6,1.4-1.4v-70.2
	c0-0.8-0.6-1.4-1.4-1.4L593.6,298.3L593.6,298.3z"/>
<path class="st2" d="M338.1,405.7c-1.6,0-2.8,1.3-2.8,2.9s1.3,2.8,2.8,2.8h75.7c1.6,0,2.8-1.3,2.8-2.9s-1.3-2.8-2.8-2.8H338.1z"/>
<path class="st1" d="M338.1,419.3c-1.6,0-2.8,1.3-2.8,2.9s1.3,2.8,2.8,2.8h34.1c1.6,0,2.8-1.3,2.8-2.9s-1.3-2.8-2.8-2.8H338.1z"/>
<path class="st2" d="M468.6,405.7c-1.6,0-2.8,1.3-2.8,2.9s1.3,2.8,2.8,2.8h75.7c1.6,0,2.8-1.3,2.8-2.9s-1.3-2.8-2.8-2.8H468.6z"/>
<path class="st1" d="M468.6,419.3c-1.6,0-2.8,1.3-2.8,2.9s1.3,2.8,2.8,2.8h34.1c1.6,0,2.8-1.3,2.8-2.9s-1.3-2.8-2.8-2.8H468.6z"/>
<path class="st2" d="M596,405.7c-1.6,0-2.8,1.3-2.8,2.9s1.3,2.8,2.8,2.8h75.7c1.6,0,2.8-1.3,2.8-2.9s-1.3-2.8-2.8-2.8H596z"/>
<path class="st2" d="M338.1,391.7c-1.6,0-2.8,1.3-2.8,2.9s1.3,2.8,2.8,2.8h75.7c1.6,0,2.8-1.3,2.8-2.9s-1.3-2.8-2.8-2.8H338.1z"/>
<path class="st2" d="M468.6,391.7c-1.6,0-2.8,1.3-2.8,2.9s1.3,2.8,2.8,2.8h75.7c1.6,0,2.8-1.3,2.8-2.9s-1.3-2.8-2.8-2.8H468.6z"/>
<path class="st2" d="M596,391.7c-1.6,0-2.8,1.3-2.8,2.9s1.3,2.8,2.8,2.8h75.7c1.6,0,2.8-1.3,2.8-2.9s-1.3-2.8-2.8-2.8H596z"/>
<path class="st1" d="M596,419.3c-1.6,0-2.8,1.3-2.8,2.9s1.3,2.8,2.8,2.8h34c1.6,0,2.8-1.3,2.8-2.9s-1.3-2.8-2.8-2.8H596z"/>
</svg>
