<?xml version="1.0" encoding="utf-8"?>
<!-- Generator: Adobe Illustrator 23.0.1, SVG Export Plug-In . SVG Version: 6.00 Build 0)  -->
<svg version="1.1" id="e8f68bdd-4984-4f2e-95b7-7fc8ec281257"
	 xmlns="http://www.w3.org/2000/svg" xmlns:xlink="http://www.w3.org/1999/xlink" x="0px" y="0px" viewBox="0 0 918.1 765.5"
	 style="enable-background:new 0 0 918.1 765.5;" xml:space="preserve">
<style type="text/css">
	.st0{opacity:0.5;}
	.st1{fill:url(#SVGID_1_);}
	.st2{fill:#F2F2F2;}
	.st3{fill:#E0E0E0;}
	.st4{opacity:0.7;fill:#00BFA6;enable-background:new    ;}
	.st5{fill:url(#SVGID_2_);}
	.st6{fill:#F5F5F5;}
	.st7{fill:url(#SVGID_3_);}
	.st8{fill:#FFFFFF;}
	.st9{clip-path:url(#SVGID_5_);}
	.st10{opacity:0.4;fill:#6C63FF;enable-background:new    ;}
	.st11{fill:url(#SVGID_6_);}
	.st12{fill:url(#SVGID_7_);}
	.st13{clip-path:url(#SVGID_9_);}
	.st14{opacity:0.4;fill:#BDBDBD;enable-background:new    ;}
	.st15{fill:url(#SVGID_10_);}
	.st16{opacity:0.7;fill:#3AD29F;enable-background:new    ;}
	.st17{fill:url(#SVGID_11_);}
	.st18{fill:#6C63FF;}
	.st19{fill:#3AD29F;}
	.st20{fill:#F55F44;}
	.st21{fill:#FDD835;}
	.st22{fill:url(#SVGID_12_);}
	.st23{fill:url(#SVGID_13_);}
	.st24{fill:#00BFA6;}
	.st25{fill:url(#SVGID_14_);}
	.st26{opacity:0.2;enable-background:new    ;}
</style>
<title>secure data</title>
<g class="st0">
	
		<linearGradient id="SVGID_1_" gradientUnits="userSpaceOnUse" x1="397.745" y1="48.75" x2="397.745" y2="679.89" gradientTransform="matrix(1 0 0 -1 0 766)">
		<stop  offset="0" style="stop-color:#808080;stop-opacity:0.25"/>
		<stop  offset="0.54" style="stop-color:#808080;stop-opacity:0.12"/>
		<stop  offset="1" style="stop-color:#808080;stop-opacity:0.1"/>
	</linearGradient>
	<rect x="162.9" y="86.1" class="st1" width="469.7" height="631.1"/>
</g>
<rect x="169" y="94.7" class="st2" width="455" height="609.1"/>
<rect x="204.5" y="120.4" class="st3" width="156.6" height="4.9"/>
<rect x="204.5" y="142.4" class="st4" width="156.6" height="4.9"/>
<rect x="384.3" y="120.4" class="st3" width="156.6" height="4.9"/>
<rect x="408.8" y="259.8" class="st3" width="156.6" height="4.9"/>
<rect x="412.4" y="273.3" class="st3" width="156.6" height="4.9"/>
<rect x="419.8" y="286.7" class="st3" width="156.6" height="4.9"/>
<rect x="408.8" y="476.3" class="st3" width="156.6" height="4.9"/>
<rect x="412.4" y="489.8" class="st3" width="156.6" height="4.9"/>
<rect x="419.8" y="503.2" class="st3" width="156.6" height="4.9"/>
<g class="st0">
	
		<linearGradient id="SVGID_2_" gradientUnits="userSpaceOnUse" x1="288.885" y1="387.56" x2="288.885" y2="556.35" gradientTransform="matrix(1 0 0 -1 0 766)">
		<stop  offset="0" style="stop-color:#808080;stop-opacity:0.25"/>
		<stop  offset="0.54" style="stop-color:#808080;stop-opacity:0.12"/>
		<stop  offset="1" style="stop-color:#808080;stop-opacity:0.1"/>
	</linearGradient>
	<rect x="205.7" y="209.6" class="st5" width="166.3" height="168.8"/>
</g>
<rect x="206.8" y="213.3" class="st6" width="163.7" height="161.5"/>
<g class="st0">
	
		<linearGradient id="SVGID_3_" gradientUnits="userSpaceOnUse" x1="288.88" y1="437.71" x2="288.88" y2="542.9" gradientTransform="matrix(1 0 0 -1 0 766)">
		<stop  offset="0" style="stop-color:#808080;stop-opacity:0.25"/>
		<stop  offset="0.54" style="stop-color:#808080;stop-opacity:0.12"/>
		<stop  offset="1" style="stop-color:#808080;stop-opacity:0.1"/>
	</linearGradient>
	<rect x="212.5" y="223.1" class="st7" width="152.7" height="105.2"/>
</g>
<rect x="213.6" y="224.3" class="st8" width="150.6" height="101.5"/>
<g>
	<defs>
		<rect id="SVGID_4_" x="213.6" y="224.3" width="150.6" height="101.5"/>
	</defs>
	<clipPath id="SVGID_5_">
		<use xlink:href="#SVGID_4_"  style="overflow:visible;"/>
	</clipPath>
	<g class="st9">
		<polygon class="st10" points="200.8,322.2 238.7,263.5 254.6,289.1 288.9,253.7 318.2,289.1 343.9,236.6 410,341.8 195.9,334.4 		
			"/>
		<circle class="st10" cx="230.2" cy="239" r="11"/>
	</g>
</g>
<g class="st0">
	
		<linearGradient id="SVGID_6_" gradientUnits="userSpaceOnUse" x1="288.885" y1="171.07" x2="288.885" y2="339.86" gradientTransform="matrix(1 0 0 -1 0 766)">
		<stop  offset="0" style="stop-color:#808080;stop-opacity:0.25"/>
		<stop  offset="0.54" style="stop-color:#808080;stop-opacity:0.12"/>
		<stop  offset="1" style="stop-color:#808080;stop-opacity:0.1"/>
	</linearGradient>
	<rect x="205.7" y="426.1" class="st11" width="166.3" height="168.8"/>
</g>
<rect x="206.8" y="429.8" class="st6" width="163.7" height="161.5"/>
<g class="st0">
	
		<linearGradient id="SVGID_7_" gradientUnits="userSpaceOnUse" x1="288.88" y1="221.21" x2="288.88" y2="326.4" gradientTransform="matrix(1 0 0 -1 0 766)">
		<stop  offset="0" style="stop-color:#808080;stop-opacity:0.25"/>
		<stop  offset="0.54" style="stop-color:#808080;stop-opacity:0.12"/>
		<stop  offset="1" style="stop-color:#808080;stop-opacity:0.1"/>
	</linearGradient>
	<rect x="212.5" y="439.6" class="st12" width="152.7" height="105.2"/>
</g>
<rect id="b429ac3a-f8a8-4171-bcce-5b6c002c0714" x="213.6" y="440.8" class="st8" width="150.6" height="101.5"/>
<g>
	<defs>
		<rect id="SVGID_8_" x="213.6" y="440.8" width="150.6" height="101.5"/>
	</defs>
	<clipPath id="SVGID_9_">
		<use xlink:href="#SVGID_8_"  style="overflow:visible;"/>
	</clipPath>
	<g class="st13">
		<polygon class="st14" points="200.8,538.7 238.7,480 254.6,505.6 288.9,470.2 318.2,505.6 343.9,453 410,558.2 195.9,550.9 		"/>
		<circle class="st14" cx="230.2" cy="455.5" r="11"/>
	</g>
</g>
<g class="st0">
	
		<linearGradient id="SVGID_10_" gradientUnits="userSpaceOnUse" x1="657.5403" y1="-57.7152" x2="657.5403" y2="573.4248" gradientTransform="matrix(0.9808 0.1949 0.1949 -0.9808 -171.4774 534.9595)">
		<stop  offset="0" style="stop-color:#808080;stop-opacity:0.25"/>
		<stop  offset="0.54" style="stop-color:#808080;stop-opacity:0.12"/>
		<stop  offset="1" style="stop-color:#808080;stop-opacity:0.1"/>
	</linearGradient>
	<polygon class="st15" points="231.9,674 354.9,54.9 815.6,146.5 692.5,765.5 	"/>
</g>
<rect x="218.4" y="180.1" transform="matrix(0.1949 -0.9808 0.9808 0.1949 21.2798 841.0829)" class="st8" width="609.1" height="455"/>
<rect x="541.6" y="-29" transform="matrix(0.1949 -0.9808 0.9808 0.1949 308.1286 640.2012)" class="st3" width="4.9" height="322.9"/>
<rect x="451.5" y="424.4" transform="matrix(0.1949 -0.9808 0.9808 0.1949 -209.2214 916.9045)" class="st3" width="4.9" height="322.9"/>
<rect x="410" y="481.6" transform="matrix(0.1949 -0.9808 0.9808 0.1949 -262.6626 892.6852)" class="st3" width="4.9" height="249.5"/>
<rect x="327.7" y="572.2" transform="matrix(0.1949 -0.9808 0.9808 0.1949 -340.9779 821.9335)" class="st4" width="4.9" height="93"/>
<rect x="456.9" y="63.6" transform="matrix(0.1949 -0.9808 0.9808 0.1949 228.3291 566.7239)" class="st4" width="4.9" height="161.5"/>
<rect x="515" y="38.9" transform="matrix(0.1949 -0.9808 0.9808 0.1949 235.6559 656.0964)" class="st3" width="4.9" height="291.1"/>
<rect x="401.6" y="155.2" transform="matrix(0.1949 -0.9808 0.9808 0.1949 138.2963 549.7603)" class="st16" width="4.9" height="70.9"/>
<rect x="519.7" y="81.3" transform="matrix(0.1949 -0.9808 0.9808 0.1949 182.2118 707.5515)" class="st3" width="4.9" height="322.9"/>
<g class="st0">
	
		<linearGradient id="SVGID_11_" gradientUnits="userSpaceOnUse" x1="656.9152" y1="148.9849" x2="656.9152" y2="315.3348" gradientTransform="matrix(0.9808 0.1949 0.1949 -0.9808 -171.4762 534.9521)">
		<stop  offset="0" style="stop-color:#808080;stop-opacity:0.25"/>
		<stop  offset="0.54" style="stop-color:#808080;stop-opacity:0.12"/>
		<stop  offset="1" style="stop-color:#808080;stop-opacity:0.1"/>
	</linearGradient>
	<polygon class="st17" points="359.7,488.6 392.1,325.5 676.5,382 644,545.1 	"/>
</g>
<rect x="436.9" y="291.6" transform="matrix(0.1949 -0.9808 0.9808 0.1949 -9.1124 858.2927)" class="st8" width="162.7" height="286.2"/>
<rect x="514.2" y="108.9" transform="matrix(0.1949 -0.9808 0.9808 0.1949 150.7344 724.3882)" class="st3" width="4.9" height="322.9"/>
<rect x="365.4" y="398.4" transform="matrix(0.1949 -0.9808 0.9808 0.1949 -66.2003 751.5381)" class="st18" width="118.6" height="35.5"/>
<rect x="443.5" y="430" transform="matrix(0.1949 -0.9808 0.9808 0.1949 -50.0432 834.4227)" class="st19" width="79.5" height="35.5"/>
<rect x="520.7" y="460.3" transform="matrix(0.1949 -0.9808 0.9808 0.1949 -32.4988 916.5632)" class="st20" width="42.8" height="35.5"/>
<rect x="565.3" y="451.2" transform="matrix(0.1949 -0.9808 0.9808 0.1949 30.1938 974.5579)" class="st21" width="86.8" height="35.5"/>
<linearGradient id="SVGID_12_" gradientUnits="userSpaceOnUse" x1="637.66" y1="11.88" x2="637.66" y2="164.95" gradientTransform="matrix(1 0 0 -1 0 766)">
	<stop  offset="0" style="stop-color:#808080;stop-opacity:0.25"/>
	<stop  offset="0.54" style="stop-color:#808080;stop-opacity:0.12"/>
	<stop  offset="1" style="stop-color:#808080;stop-opacity:0.1"/>
</linearGradient>
<rect x="544.4" y="601" class="st22" width="186.5" height="153.1"/>
<linearGradient id="SVGID_13_" gradientUnits="userSpaceOnUse" x1="778.365" y1="92.09" x2="778.365" y2="196.825" gradientTransform="matrix(1 0 0 -1 -140.93 698.77)">
	<stop  offset="0" style="stop-color:#808080;stop-opacity:0.25"/>
	<stop  offset="0.54" style="stop-color:#808080;stop-opacity:0.12"/>
	<stop  offset="1" style="stop-color:#808080;stop-opacity:0.1"/>
</linearGradient>
<path class="st23" d="M582.9,571.8c0-30.1,24.5-54.5,54.6-54.5c30.1,0,54.5,24.4,54.5,54.5v34.9h15.3v-34.9
	c0-38.6-31.3-69.8-69.8-69.8c-38.6,0-69.8,31.3-69.8,69.8l0,0v34.9h15.3L582.9,571.8z"/>
<path class="st6" d="M585.1,571c0-28.9,23.4-52.4,52.4-52.4c28.9,0,52.4,23.4,52.4,52.4c0,0,0,0,0,0v33.5h14.7V571c0-37-30-67-67-67
	c-37,0-67,30-67,67v33.5h14.7V571z"/>
<rect x="546.3" y="602.5" class="st18" width="182.2" height="148.7"/>
<rect x="546.3" y="602.5" class="st6" width="182.2" height="148.7"/>
<rect x="546.3" y="631.8" class="st24" width="182.2" height="90.1"/>
<linearGradient id="SVGID_14_" gradientUnits="userSpaceOnUse" x1="778.37" y1="-8.38" x2="778.37" y2="52.3757" gradientTransform="matrix(1 0 0 -1 -140.93 698.77)">
	<stop  offset="0" style="stop-color:#808080;stop-opacity:0.25"/>
	<stop  offset="0.54" style="stop-color:#808080;stop-opacity:0.12"/>
	<stop  offset="1" style="stop-color:#808080;stop-opacity:0.1"/>
</linearGradient>
<path class="st25" d="M650.8,659.8c0-7.4-6-13.4-13.3-13.4c-7.4,0-13.4,6-13.4,13.3c0,3.4,1.3,6.7,3.6,9.2v28.5
	c0,5.4,4.4,9.7,9.7,9.7c5.4,0,9.7-4.4,9.7-9.7V669C649.5,666.5,650.8,663.2,650.8,659.8z"/>
<path class="st26" d="M649,662.2c0-6.4-5.1-11.5-11.5-11.5c-6.4,0-11.5,5.1-11.5,11.5c0,2.9,1.1,5.8,3.1,7.9v24.6
	c0,4.6,3.8,8.4,8.4,8.4s8.4-3.8,8.4-8.4V670C647.8,667.9,649,665.1,649,662.2z"/>
</svg>
