<?xml version="1.0" encoding="utf-8"?>
<!-- Generator: Adobe Illustrator 23.0.1, SVG Export Plug-In . SVG Version: 6.00 Build 0)  -->
<svg version="1.1" id="a6165653-2719-4fed-8ed9-8fe7d02b0919"
	 xmlns="http://www.w3.org/2000/svg" xmlns:xlink="http://www.w3.org/1999/xlink" x="0px" y="0px" viewBox="0 0 612 639.2"
	 style="enable-background:new 0 0 612 639.2;" xml:space="preserve">
<style type="text/css">
	.st0{fill:#E6E6E6;}
	.st1{fill:#FFFFFF;}
	.st2{fill:#FFB8B8;}
	.st3{fill:#2F2E41;}
	.st4{fill:#00BFA6;}
</style>
<title>adicionar_documento</title>
<path class="st0" d="M132,51c-2.8,0-5,2.2-5,5v535c0,2.8,2.2,5,5,5h431c2.8,0,5-2.2,5-5V56c0-2.8-2.2-5-5-5H132z"/>
<path class="st1" d="M494.5,284.7h-294c-4.1,0-7.5-3.4-7.5-7.5s3.4-7.5,7.5-7.5h294c4.1,0,7.5,3.4,7.5,7.5S498.6,284.7,494.5,284.7z
	"/>
<path class="st1" d="M497,144.9H302c-2.8,0-5-3.4-5-7.5s2.2-7.5,5-7.5h195c2.8,0,5,3.4,5,7.5S499.8,144.9,497,144.9z"/>
<path class="st1" d="M497,187.9H302c-2.8,0-5-3.4-5-7.5s2.2-7.5,5-7.5h195c2.8,0,5,3.4,5,7.5S499.8,187.9,497,187.9z"/>
<path class="st1" d="M494.5,333.2h-294c-4.1,0-7.5-3.4-7.5-7.5s3.4-7.5,7.5-7.5h294c4.1,0,7.5,3.4,7.5,7.5S498.6,333.2,494.5,333.2z
	"/>
<path class="st1" d="M494.5,381.7h-294c-4.1,0-7.5-3.4-7.5-7.5s3.4-7.5,7.5-7.5h294c4.1,0,7.5,3.4,7.5,7.5S498.6,381.7,494.5,381.7z
	"/>
<path class="st1" d="M494.5,430.2h-294c-4.1,0-7.5-3.4-7.5-7.5s3.4-7.5,7.5-7.5h294c4.1,0,7.5,3.4,7.5,7.5S498.6,430.2,494.5,430.2z
	"/>
<path class="st1" d="M494.5,478.7h-294c-4.1,0-7.5-3.4-7.5-7.5s3.4-7.5,7.5-7.5h294c4.1,0,7.5,3.4,7.5,7.5S498.6,478.7,494.5,478.7z
	"/>
<path class="st1" d="M494.5,527.2h-294c-4.1,0-7.5-3.4-7.5-7.5s3.4-7.5,7.5-7.5h294c4.1,0,7.5,3.4,7.5,7.5S498.6,527.2,494.5,527.2z
	"/>
<circle class="st1" cx="232.5" cy="159.4" r="39.5"/>
<path class="st1" d="M293.4,284.7"/>
<path class="st2" d="M202.6,298l-58.9,31.3l-0.8-26.1c19.2-3.2,37.5-8.8,54.4-17.9l6.2-15.2c2.1-5.3,8.2-7.8,13.5-5.7
	c1.6,0.6,3,1.7,4.1,3l0,0c3.4,4.2,3,10.4-0.9,14.1L202.6,298z"/>
<path class="st3" d="M58.7,478.8L58.7,478.8c-0.9-3.2-0.3-6.6,1.5-9.4l12.9-19.9c6.3-9.7,19-13.1,29.3-7.7l0,0
	c-5.4,9.3-4.7,17.4,1.9,24.4c-10.2,5-19.6,11.4-27.9,19c-5.3,3.6-12.5,2.2-16.1-3l0,0C59.6,481.2,59,480,58.7,478.8z"/>
<path class="st3" d="M205.3,452.8L205.3,452.8c-4,6.6-11.1,10.7-18.9,10.8l-86,0.6l-3.7-21.6l38-11.2l-32-24.6l35-41l63.6,59.3
	C209,432.3,210.7,443.8,205.3,452.8z"/>
<path class="st3" d="M87,600.7H66.9C48.8,476.8,30.4,352.5,84.8,306.2l64.1,10.4l-8.2,54.4l-35.8,41L87,600.7z"/>
<path class="st3" d="M102.7,638.8L102.7,638.8c-3.2,0.9-6.6,0.3-9.4-1.5l-19.9-12.9c-9.7-6.3-13.1-19-7.7-29.3l0,0
	c9.3,5.4,17.4,4.7,24.4-1.9c5,10.2,11.4,19.6,19,27.9c3.6,5.3,2.3,12.5-3,16.1l0,0C105.1,637.9,104,638.4,102.7,638.8z"/>
<path class="st3" d="M174.9,220.1H79.2c-17.7-25-19.8-48.9,0-71.3c0-9.9,12.8-17.9,28.6-17.9l0,0c12.4,0,23.3,5,27.1,12.4
	L174.9,220.1z"/>
<path class="st2" d="M134.8,223.4l-37.3-8.9c6.2-12.7,6.7-26.8,3.7-41.8l25.4-0.7C127.3,190.6,129.8,208,134.8,223.4z"/>
<path class="st4" d="M145,339c-27.1,18.5-46.3,0.6-60.9-26.9c2-16.9-1.3-37-7.4-59c-5.6-20,5-41,24.5-48.4l0,0l32.1,13.4
	c27.2,22.2,32.6,46.2,22.4,71.6L145,339z"/>
<path class="st2" d="M66.9,242l-29.8,15.7L90,289l7.4,18.2c2,4.9-0.4,10.5-5.3,12.5l-0.5,0.2l0,0c-5,1.7-10.5-1-12.2-6l0,0
	c-0.3-0.8-0.5-1.7-0.5-2.6l-0.8-12.7l-67.3-22.2c-4.6-1.5-8.2-5.1-9.9-9.6l0,0c-2.4-6.7,0-14.3,5.9-18.3l54.1-37.1L66.9,242z"/>
<path class="st4" d="M96.7,245c-12.4-5.4-23.8,0.5-38,5.2l-2.2-39.5c14.2-7.6,27.7-9.6,40.3-3.7L96.7,245z"/>
<path class="st3" d="M173.2,220.1H152c-13.1-24.2-12.5-67.1-40.8-57.5c-18.1-10.8-7.7,31.5-12.2,57.5H80.7
	c-5-25.4-5.1-50.9,0.8-71.6c0.1-2.7,1.4-5.3,3.5-7.1c0.9-0.8,1.9-1.6,2.9-2.2c6.5-4.1,10.8-6.4,20.3-6.4c5.3,0,10.6,0.7,15.7,2.1
	c0.7,0.2,1.3,0.4,1.9,0.6c0.9,0.3,1.7,0.6,2.5,1c4.1,1.8,7.4,4.2,8.9,7.2C155.2,165,164.3,191.9,173.2,220.1z"/>
<circle class="st2" cx="111.6" cy="167.7" r="23.8"/>
<path class="st3" d="M135.8,158.6c-7.2-9.8-25.8,1.9-48.3,10.2v-23.1c18.5-8.1,29.2-10.5,41.5-2L135.8,158.6z"/>
<ellipse transform="matrix(0.7071 -0.7071 0.7071 0.7071 121.547 408.8804)" class="st4" cx="554.3" cy="57.7" rx="57.7" ry="57.7"/>
<path class="st1" d="M530.3,53.8c-2.1,0.1-3.7,1.9-3.6,4c0.1,2,1.7,3.5,3.6,3.6h20.2v20.2c0.1,2.1,1.9,3.7,4,3.6
	c2-0.1,3.5-1.7,3.6-3.6l0,0V61.5h20.2c2.1,0.1,3.9-1.5,4-3.6s-1.5-3.9-3.6-4c-0.1,0-0.3,0-0.4,0h-20.2V33.6c-0.1-2.1-1.9-3.7-4-3.6
	c-2,0.1-3.5,1.7-3.6,3.6l0,0v20.2H530.3z"/>
</svg>
