<svg id="a6165653-2719-4fed-8ed9-8fe7d02b0919" xmlns="http://www.w3.org/2000/svg" viewBox="0 0 612 639.16"><defs><style>.cls-1{fill:#e6e6e6;}.cls-2{fill:#fff;}.cls-3{fill:#ffb8b8;}.cls-4{fill:#2f2e41;}.cls-5{fill:#00bfa6;}</style></defs><title>adicionar_documento</title><path class="cls-1" d="M221.81,51.05a5,5,0,0,0-5,5v535a5,5,0,0,0,5,5h431a5,5,0,0,0,5-5v-535a5,5,0,0,0-5-5Z" transform="translate(-89.81)"/><path class="cls-2" d="M584.31,284.68h-294a7.5,7.5,0,0,1,0-15h294a7.5,7.5,0,0,1,0,15Z" transform="translate(-89.81)"/><path class="cls-2" d="M586.83,144.93H391.78c-2.75,0-5-3.36-5-7.5s2.22-7.5,5-7.5H586.83c2.75,0,5,3.36,5,7.5S589.58,144.93,586.83,144.93Z" transform="translate(-89.81)"/><path class="cls-2" d="M586.83,187.93H391.78c-2.75,0-5-3.36-5-7.5s2.22-7.5,5-7.5H586.83c2.75,0,5,3.36,5,7.5S589.58,187.93,586.83,187.93Z" transform="translate(-89.81)"/><path class="cls-2" d="M584.31,333.18h-294a7.5,7.5,0,0,1,0-15h294a7.5,7.5,0,0,1,0,15Z" transform="translate(-89.81)"/><path class="cls-2" d="M584.31,381.68h-294a7.5,7.5,0,0,1,0-15h294a7.5,7.5,0,0,1,0,15Z" transform="translate(-89.81)"/><path class="cls-2" d="M584.31,430.18h-294a7.5,7.5,0,0,1,0-15h294a7.5,7.5,0,0,1,0,15Z" transform="translate(-89.81)"/><path class="cls-2" d="M584.31,478.68h-294a7.5,7.5,0,0,1,0-15h294a7.5,7.5,0,0,1,0,15Z" transform="translate(-89.81)"/><path class="cls-2" d="M584.31,527.18h-294a7.5,7.5,0,0,1,0-15h294a7.5,7.5,0,0,1,0,15Z" transform="translate(-89.81)"/><circle class="cls-2" cx="232.5" cy="159.43" r="39.5"/><path class="cls-2" d="M383.17,284.68" transform="translate(-89.81)"/><path class="cls-3" d="M292.41,298l-58.9,31.32-.75-26.1c19.23-3.21,37.52-8.79,54.43-17.89l6.16-15.22a10.33,10.33,0,0,1,17.54-2.68h0a10.32,10.32,0,0,1-.91,14.07Z" transform="translate(-89.81)"/><path class="cls-4" d="M148.49,478.77h0a11.53,11.53,0,0,1,1.47-9.36l12.93-19.86a22.61,22.61,0,0,1,29.34-7.74h0c-5.44,9.26-4.68,17.38,1.88,24.43a117.77,117.77,0,0,0-27.94,19.05,11.57,11.57,0,0,1-16.08-3.05A11.41,11.41,0,0,1,148.49,478.77Z" transform="translate(-89.81)"/><path class="cls-4" d="M295.09,452.8h0a22.17,22.17,0,0,1-18.87,10.78l-86,.65-3.73-21.62,38-11.18L192.5,406.82l35-41,63.65,59.33A22.19,22.19,0,0,1,295.09,452.8Z" transform="translate(-89.81)"/><path class="cls-4" d="M176.84,600.68H156.71c-18.08-123.9-36.47-248.14,17.89-294.51l64.13,10.43L230.52,371l-35.78,41Z" transform="translate(-89.81)"/><path class="cls-4" d="M192.54,638.75h0a11.6,11.6,0,0,1-9.37-1.47l-19.85-12.94A22.61,22.61,0,0,1,155.57,595h0c9.26,5.43,17.38,4.68,24.44-1.88a117.47,117.47,0,0,0,19,27.93,11.56,11.56,0,0,1-3,16.08A11.44,11.44,0,0,1,192.54,638.75Z" transform="translate(-89.81)"/><path class="cls-4" d="M264.71,220.05H169c-17.67-25-19.75-48.91,0-71.29,0-9.9,12.78-17.92,28.55-17.92h0c12.35,0,23.31,5,27.14,12.36Z" transform="translate(-89.81)"/><path class="cls-3" d="M224.56,223.4l-37.28-8.94c6.19-12.68,6.7-26.78,3.73-41.76l25.35-.74C217.15,190.58,219.56,208,224.56,223.4Z" transform="translate(-89.81)"/><path class="cls-5" d="M234.81,339.05c-27.14,18.5-46.32.64-60.95-26.92,2-16.86-1.26-37-7.36-59A40.14,40.14,0,0,1,191,204.76h0l32.06,13.42c27.22,22.19,32.58,46.23,22.37,71.58Z" transform="translate(-89.81)"/><path class="cls-3" d="M156.71,242,126.88,257.7,179.82,289l7.37,18.17a9.64,9.64,0,0,1-5.31,12.55l-.48.18h0a9.64,9.64,0,0,1-12.25-6,9.45,9.45,0,0,1-.51-2.58l-.75-12.66-67.28-22.2a15.74,15.74,0,0,1-9.87-9.62h0a15.72,15.72,0,0,1,5.9-18.3l54.1-37.12Z" transform="translate(-89.81)"/><path class="cls-5" d="M186.53,245c-12.44-5.45-23.75.47-38,5.22l-2.24-39.52c14.18-7.56,27.69-9.59,40.26-3.73Z" transform="translate(-89.81)"/><path class="cls-4" d="M263,220.05H241.85c-13.14-24.23-12.54-67.05-40.78-57.51-18.14-10.76-7.73,31.49-12.24,57.51H170.47c-5-25.43-5.05-50.91.81-71.63a9.66,9.66,0,0,1,3.52-7.06,20,20,0,0,1,2.94-2.24c6.49-4.08,10.84-6.41,20.32-6.41a57.44,57.44,0,0,1,15.69,2.15c.66.2,1.32.41,1.95.63.87.29,1.72.62,2.52,1,4.15,1.79,7.41,4.2,8.95,7.22C245,165,254.15,191.86,263,220.05Z" transform="translate(-89.81)"/><circle class="cls-3" cx="111.61" cy="167.73" r="23.8"/><path class="cls-4" d="M225.56,158.55c-7.17-9.76-25.84,1.88-48.29,10.2V145.63c18.47-8.13,29.24-10.48,41.48-2Z" transform="translate(-89.81)"/><circle class="cls-5" cx="554.34" cy="57.66" r="57.66"/><path class="cls-2" d="M620.12,53.85a3.81,3.81,0,0,0,0,7.61h20.22V81.68a3.81,3.81,0,0,0,7.61,0h0V61.46h20.22a3.81,3.81,0,1,0,0-7.61H648V33.63a3.81,3.81,0,0,0-7.61,0h0V53.85Z" transform="translate(-89.81)"/></svg>