<?xml version="1.0" encoding="utf-8"?>
<!-- Generator: Adobe Illustrator 23.0.1, SVG Export Plug-In . SVG Version: 6.00 Build 0)  -->
<svg version="1.1" id="f115e1f4-ca9e-46ea-99f2-be217fabe967"
	 xmlns="http://www.w3.org/2000/svg" xmlns:xlink="http://www.w3.org/1999/xlink" x="0px" y="0px" viewBox="0 0 782.4 634.1"
	 style="enable-background:new 0 0 782.4 634.1;" xml:space="preserve">
<style type="text/css">
	.st0{fill:#3F3D56;}
	.st1{fill:#E6E6E6;}
	.st2{fill:#00BFA6;}
	.st3{fill:#FFFFFF;}
	.st4{fill:#FFB8B8;}
	.st5{fill:#2F2E41;}
</style>
<polygon class="st0" points="782,634.1 524.3,634.1 524.3,632 782.4,632 "/>
<circle class="st1" cx="6.8" cy="6.8" r="6.8"/>
<circle class="st1" cx="41.3" cy="6.8" r="6.8"/>
<circle class="st1" cx="75.8" cy="6.8" r="6.8"/>
<circle class="st1" cx="110.3" cy="6.8" r="6.8"/>
<circle class="st1" cx="144.8" cy="6.8" r="6.8"/>
<circle class="st1" cx="179.3" cy="6.8" r="6.8"/>
<circle class="st1" cx="213.7" cy="6.8" r="6.8"/>
<circle class="st1" cx="248.2" cy="6.8" r="6.8"/>
<circle class="st1" cx="282.7" cy="6.8" r="6.8"/>
<circle class="st1" cx="317.2" cy="6.8" r="6.8"/>
<circle class="st1" cx="6.8" cy="41.7" r="6.8"/>
<circle class="st1" cx="41.3" cy="41.7" r="6.8"/>
<circle class="st1" cx="75.8" cy="41.7" r="6.8"/>
<circle class="st2" cx="110.3" cy="41.7" r="6.8"/>
<circle class="st1" cx="144.8" cy="41.7" r="6.8"/>
<circle class="st1" cx="179.3" cy="41.7" r="6.8"/>
<circle class="st1" cx="213.7" cy="41.7" r="6.8"/>
<circle class="st1" cx="248.2" cy="41.7" r="6.8"/>
<circle class="st1" cx="282.7" cy="41.7" r="6.8"/>
<circle class="st1" cx="317.2" cy="41.7" r="6.8"/>
<circle class="st1" cx="6.8" cy="76.7" r="6.8"/>
<circle class="st1" cx="41.3" cy="76.7" r="6.8"/>
<circle class="st1" cx="75.8" cy="76.7" r="6.8"/>
<circle class="st1" cx="110.3" cy="76.7" r="6.8"/>
<circle class="st1" cx="144.8" cy="76.7" r="6.8"/>
<circle class="st1" cx="179.3" cy="76.7" r="6.8"/>
<circle class="st1" cx="213.7" cy="76.7" r="6.8"/>
<circle class="st1" cx="248.2" cy="76.7" r="6.8"/>
<circle class="st1" cx="282.7" cy="76.7" r="6.8"/>
<circle class="st1" cx="317.2" cy="76.7" r="6.8"/>
<circle class="st1" cx="6.8" cy="111.6" r="6.8"/>
<circle class="st1" cx="41.3" cy="111.6" r="6.8"/>
<circle class="st1" cx="75.8" cy="111.6" r="6.8"/>
<circle class="st1" cx="110.3" cy="111.6" r="6.8"/>
<circle class="st1" cx="144.8" cy="111.6" r="6.8"/>
<circle class="st1" cx="179.3" cy="111.6" r="6.8"/>
<circle class="st1" cx="213.7" cy="111.6" r="6.8"/>
<circle class="st1" cx="248.2" cy="111.6" r="6.8"/>
<circle class="st1" cx="282.7" cy="111.6" r="6.8"/>
<circle class="st1" cx="317.2" cy="111.6" r="6.8"/>
<circle class="st1" cx="6.8" cy="146.5" r="6.8"/>
<circle class="st2" cx="41.3" cy="146.5" r="6.8"/>
<circle class="st1" cx="75.8" cy="146.5" r="6.8"/>
<circle class="st1" cx="110.3" cy="146.5" r="6.8"/>
<circle class="st1" cx="144.8" cy="146.5" r="6.8"/>
<circle class="st1" cx="179.3" cy="146.5" r="6.8"/>
<circle class="st1" cx="213.7" cy="146.5" r="6.8"/>
<circle class="st1" cx="248.2" cy="146.5" r="6.8"/>
<circle class="st1" cx="282.7" cy="146.5" r="6.8"/>
<circle class="st1" cx="317.2" cy="146.5" r="6.8"/>
<circle class="st1" cx="6.8" cy="181.4" r="6.8"/>
<circle class="st1" cx="41.3" cy="181.4" r="6.8"/>
<circle class="st1" cx="75.8" cy="181.4" r="6.8"/>
<circle class="st1" cx="110.3" cy="181.4" r="6.8"/>
<circle class="st1" cx="144.8" cy="181.4" r="6.8"/>
<circle class="st1" cx="179.3" cy="181.4" r="6.8"/>
<circle class="st1" cx="213.7" cy="181.4" r="6.8"/>
<circle class="st1" cx="248.2" cy="181.4" r="6.8"/>
<circle class="st1" cx="282.7" cy="181.4" r="6.8"/>
<circle class="st1" cx="317.2" cy="181.4" r="6.8"/>
<circle class="st1" cx="6.8" cy="216.3" r="6.8"/>
<circle class="st1" cx="41.3" cy="216.3" r="6.8"/>
<circle class="st2" cx="75.8" cy="216.3" r="6.8"/>
<circle class="st1" cx="110.3" cy="216.3" r="6.8"/>
<circle class="st1" cx="144.8" cy="216.3" r="6.8"/>
<circle class="st1" cx="179.3" cy="216.3" r="6.8"/>
<circle class="st1" cx="213.7" cy="216.3" r="6.8"/>
<circle class="st1" cx="248.2" cy="216.3" r="6.8"/>
<circle class="st1" cx="282.7" cy="216.3" r="6.8"/>
<circle class="st1" cx="317.2" cy="216.3" r="6.8"/>
<circle class="st1" cx="6.8" cy="251.3" r="6.8"/>
<circle class="st1" cx="41.3" cy="251.3" r="6.8"/>
<circle class="st1" cx="75.8" cy="251.3" r="6.8"/>
<circle class="st1" cx="110.3" cy="251.3" r="6.8"/>
<circle class="st1" cx="144.8" cy="251.3" r="6.8"/>
<circle class="st1" cx="179.3" cy="251.3" r="6.8"/>
<circle class="st1" cx="213.7" cy="251.3" r="6.8"/>
<circle class="st1" cx="248.2" cy="251.3" r="6.8"/>
<circle class="st1" cx="282.7" cy="251.3" r="6.8"/>
<circle class="st1" cx="317.2" cy="251.3" r="6.8"/>
<ellipse transform="matrix(4.064880e-03 -1 1 4.064880e-03 -279.4023 291.8642)" class="st1" cx="6.8" cy="286.2" rx="6.8" ry="6.8"/>
<circle class="st1" cx="41.3" cy="286.2" r="6.8"/>
<circle class="st1" cx="75.8" cy="286.2" r="6.8"/>
<circle class="st1" cx="110.3" cy="286.2" r="6.8"/>
<circle class="st1" cx="144.8" cy="286.2" r="6.8"/>
<circle class="st1" cx="179.3" cy="286.2" r="6.8"/>
<circle class="st1" cx="213.7" cy="286.2" r="6.8"/>
<circle class="st1" cx="248.2" cy="286.2" r="6.8"/>
<circle class="st1" cx="282.7" cy="286.2" r="6.8"/>
<circle class="st1" cx="317.2" cy="286.2" r="6.8"/>
<ellipse transform="matrix(4.064907e-03 -1 1 4.064907e-03 -314.3455 326.6224)" class="st1" cx="6.8" cy="321.1" rx="6.8" ry="6.8"/>
<circle class="st1" cx="41.3" cy="321.1" r="6.8"/>
<circle class="st1" cx="75.8" cy="321.1" r="6.8"/>
<circle class="st1" cx="110.3" cy="321.1" r="6.8"/>
<circle class="st1" cx="144.8" cy="321.1" r="6.8"/>
<circle class="st1" cx="179.3" cy="321.1" r="6.8"/>
<circle class="st1" cx="213.7" cy="321.1" r="6.8"/>
<circle class="st1" cx="248.2" cy="321.1" r="6.8"/>
<circle class="st1" cx="282.7" cy="321.1" r="6.8"/>
<circle class="st1" cx="317.2" cy="321.1" r="6.8"/>
<path class="st1" d="M400.4,60.9c4.8,0,8.6,3.9,8.6,8.6l0,0v344.6c0,4.8-3.9,8.6-8.6,8.6l0,0H153.2c-4.8,0-8.6-3.9-8.6-8.6l0,0V69.5
	c0-4.8,3.9-8.6,8.6-8.6l0,0H400.4"/>
<path class="st3" d="M154.2,413.1h245.2V70.5H154.2V413.1z"/>
<path class="st1" d="M344.8,124.7c1,0,1.7,0.8,1.7,1.7l0,0v3.4c0,1-0.8,1.7-1.7,1.7H208.7c-1,0-1.7-0.8-1.7-1.7v-3.4
	c0-1,0.8-1.7,1.7-1.7l0,0L344.8,124.7"/>
<path class="st1" d="M344.8,141.1c1,0,1.7,0.8,1.7,1.7v3.4c0,1-0.8,1.7-1.7,1.7H208.7c-1,0-1.7-0.8-1.7-1.7v-3.4
	c0-1,0.8-1.7,1.7-1.7l0,0H344.8"/>
<path class="st2" d="M344.8,157.4c1,0,1.7,0.8,1.7,1.7v3.4c0,1-0.8,1.7-1.7,1.7H208.7c-1,0-1.7-0.8-1.7-1.7v-3.4
	c0-1,0.8-1.7,1.7-1.7H344.8"/>
<path class="st1" d="M344.8,174.2c1,0,1.7,0.8,1.7,1.7v3.4c0,1-0.8,1.7-1.7,1.7H208.7c-1,0-1.7-0.8-1.7-1.7v-3.4
	c0-1,0.8-1.7,1.7-1.7H344.8"/>
<path class="st1" d="M344.8,190.5c1,0,1.7,0.8,1.7,1.7v3.4c0,1-0.8,1.7-1.7,1.7l0,0H208.7c-1,0-1.7-0.8-1.7-1.7l0,0v-3.4
	c0-1,0.8-1.7,1.7-1.7H344.8"/>
<path class="st1" d="M344.8,206.9c1,0,1.7,0.8,1.7,1.7v3.4c0,1-0.8,1.7-1.7,1.7H208.7c-1,0-1.7-0.8-1.7-1.7v-3.4
	c0-1,0.8-1.7,1.7-1.7H344.8"/>
<path class="st2" d="M209.6,262c-1.1,0-2,0.9-2,2v92.9c0,1.1,0.9,2,2,2h134.1c1.1,0,2-0.9,2-2V264c0-1.1-0.9-2-2-2H209.6z"/>
<polygon class="st0" points="277.2,161.2 275.8,160.8 306.6,45.2 484.8,45.2 484.8,46.7 307.7,46.7 "/>
<path class="st0" d="M499.3,61.2c-8.4,0-15.3-6.8-15.3-15.3c0-8.4,6.8-15.3,15.3-15.3c8.4,0,15.3,6.8,15.3,15.3l0,0
	C514.6,54.4,507.8,61.2,499.3,61.2z M499.3,32.1c-7.6,0-13.8,6.2-13.8,13.8s6.2,13.8,13.8,13.8c7.6,0,13.8-6.2,13.8-13.8l0,0
	C513.2,38.3,507,32.1,499.3,32.1z"/>
<circle class="st2" cx="499.3" cy="45.9" r="5.8"/>
<polygon class="st0" points="272.5,356.9 273.9,357.3 242.9,472.8 64.7,472.5 64.7,471 241.8,471.4 "/>
<path class="st0" d="M50.2,456.5c8.4,0,15.3,6.9,15.3,15.3s-6.9,15.3-15.3,15.3s-15.3-6.9-15.3-15.3l0,0
	C34.9,463.3,41.7,456.5,50.2,456.5z M50.1,485.6c7.6,0,13.8-6.2,13.9-13.8c0-7.6-6.2-13.8-13.8-13.9c-7.6,0-13.8,6.2-13.9,13.8l0,0
	C36.3,479.4,42.5,485.6,50.1,485.6z"/>
<circle class="st2" cx="50.2" cy="471.7" r="5.8"/>
<polygon class="st4" points="616.8,600.6 606.6,600.6 608.4,543.7 635.5,545.2 "/>
<path class="st5" d="M618.2,633.3c-3.1,1.4-5.7-10.1-8.3-7.5c-7.3,7.2-14.9,8.8-24.7,5.6H585c-2.4-0.8-3.7-3.4-3-5.8
	c0-0.1,0-0.1,0.1-0.2l0,0c0.5-1.4,1.7-2.5,3.2-2.8l7.8-1.9l12.2-21.5l12.5-0.8l0,0c5.6,7.2,7.7,16.6,5.5,25.4
	C622.2,628.4,620.4,632.3,618.2,633.3z"/>
<polygon class="st4" points="714.5,593.1 704.9,596.9 685.7,543.3 711.5,534.7 "/>
<path class="st5" d="M727.8,623c-2.4,2.5-9-7.3-10.5-3.9c-4.2,9.4-10.6,13.6-20.9,14.3h-0.2c-2.5,0.2-4.7-1.7-4.9-4.3
	c0-0.1,0-0.1,0-0.2l0,0c0-1.5,0.7-2.9,1.9-3.8l6.5-4.7l3.5-24.5l11.3-5.4l0,0c7.9,4.6,13.2,12.6,14.5,21.6
	C729.7,616.9,729.5,621.2,727.8,623z"/>
<path class="st4" d="M683.3,318.4l-15.8,4.1c-4.4,1.1-8.9-1.5-10.1-5.9c-0.1-0.6-0.2-1.2-0.3-1.7l0,0c-0.2-4.6,3.4-8.4,7.9-8.6
	c0.2,0,0.4,0,0.6,0l13.9,0.4l26.8-9.8L681.1,278l2.9-26.4l49.3,39.6c1.8,1.4,2.9,3.5,3,5.8l0,0c0.3,3.9-2.2,7.5-6,8.5
	C718.8,314.9,702,317.8,683.3,318.4z"/>
<circle class="st4" cx="647.3" cy="193.6" r="25.7"/>
<path class="st4" d="M678.9,228.8l-34.5,13.9c1-10.9-1.8-21.8-8.1-30.8l28.6-6.6C664.5,214.1,669.3,221.9,678.9,228.8z"/>
<path class="st2" d="M685.1,288.6c-27.8,2.2-43-1.5-66.4-15l8.8-20.6l0,0c-0.9-6.3,1.8-12.6,7-16.3l9.1-6.5l27.9-8.1l1.3,0.1
	c7.7,0.4,13.9,6.4,14.5,14.1C693.3,254.4,693.3,272,685.1,288.6z"/>
<path class="st5" d="M679.6,331.6l-59.5-6.6l-4.4-19.1c-9.8-14.7-5.5-28.2,5.9-41.1c20.7,13.3,40,19.1,67.5,14.7
	C681.8,297.3,675,314.8,679.6,331.6z"/>
<path class="st5" d="M725.8,554l-47.3-2.6l-15.4-122.6l-12.5,121.9l-56.2-2.6c17.1-80.1,29-156.2,25.7-226.1l58.7,5.1
	c19.9,21,29.8,54.5,35.6,94.3S725,507.5,725.8,554z"/>
<circle class="st5" cx="675.6" cy="161.3" r="8.8"/>
<path class="st5" d="M666.5,159.2c0.3-4.7,4.2-8.3,8.8-8.3c-0.2,0-0.4-0.1-0.5-0.1c-4.9-0.3-9.1,3.4-9.4,8.2
	c-0.3,4.9,3.4,9.1,8.2,9.4c0.2,0,0.4,0,0.6,0C669.6,167.9,666.2,163.8,666.5,159.2z"/>
<path class="st5" d="M666.4,163c-7.9-6.5-30.5,1.8-31.9,6.2c-10.7,1.5-18.7,7.7-18.7,18.7l0,0c6.3,2.6,13.5,2.3,21.3,0
	c12.4,10.1,13.3,22.8,5.7,37.4l9.3,0.2l11.5-16.8l0.6,17.1l21.3-0.4v-24.5c0.1-8.1-1.8-16.2-5.5-23.4
	C676.7,170.9,671.5,167.2,666.4,163z"/>
<ellipse class="st4" cx="646.6" cy="200.2" rx="4.2" ry="5.9"/>
<path class="st2" d="M614.3,427c0.8,0,1.5,0.7,1.5,1.5v59.3c0,0.8-0.7,1.5-1.5,1.5h-42.6c-0.8,0-1.5-0.7-1.5-1.5v-59.3
	c0-0.8,0.7-1.5,1.5-1.5H614.3"/>
<path class="st4" d="M620.1,405l1.4,24.9c0.3,6-4.2,11.1-10.2,11.4c-0.7,0-1.5,0-2.2-0.1l0,0c-6.3-0.9-6.5-7.1-4.9-13.3l5.9-23.6
	c14.5-52,18.4-103,17.7-152.8c-0.1-6.9,5.4-12.6,12.3-12.7c0.2,0,0.4,0,0.6,0l0,0c6.9,0.2,12.3,6,12.1,12.8v0.1
	C650.8,310.1,642.2,363.2,620.1,405z"/>
</svg>
