<?xml version="1.0" encoding="utf-8"?>
<!-- Generator: Adobe Illustrator 23.0.1, SVG Export Plug-In . SVG Version: 6.00 Build 0)  -->
<svg version="1.1" id="ba655a8f-b4ad-4c33-a1da-708fab31f9a8"
	 xmlns="http://www.w3.org/2000/svg" xmlns:xlink="http://www.w3.org/1999/xlink" x="0px" y="0px" viewBox="0 0 847 535.6"
	 style="enable-background:new 0 0 847 535.6;" xml:space="preserve">
<style type="text/css">
	.st0{fill:#3F3D56;}
	.st1{fill:#A0616A;}
	.st2{fill:#E6E6E6;}
	.st3{fill:#2F2E41;}
	.st4{fill:#FFFFFF;}
	.st5{fill:#00BFA6;}
</style>
<title>reviewed_docs</title>
<rect x="641" y="515.8" class="st0" width="206" height="2"/>
<polygon class="st1" points="766,223.6 766,237.4 775.6,252.5 782.5,224.9 "/>
<path class="st2" d="M764.6,100.8l7.5-2.2c0,0,11.8,2.2,11.8,15.9s2.8,68.9,2.8,68.9l-2.8,31.7c0,0,4.1,1.4,2.8,5.5
	s-4.1,13.8-5.5,12.4s-1.4-4.1-1.4-4.1s-22.1,4.1-20.7,0s1.4-13.8,2.8-13.8s-1.4-41.4-1.4-41.4L764.6,100.8z"/>
<polygon class="st1" points="639.8,218.7 657.7,240.8 679.8,267 686.7,235.3 674.4,233.4 661.9,214.6 "/>
<path class="st3" d="M684.6,211.2c0,0-20.7,11-6.9,85.5l4.1,74.5l2.8,122.7h27.6l5.5-121.3l16.5-77.2l26.2,68.9l-9.7,122.7l37.2,5.5
	l12.4-137.9l-22.1-102l-16.5-29l-3.4-7.6L684.6,211.2z"/>
<path class="st3" d="M688.8,489.7l-4.1,12.4c0,0-5.5,22.1,13.8,19.3s12.4-15.2,12.4-15.2l-1.4-16.5H688.8z"/>
<path class="st3" d="M752.2,485.6c0,0-4.1,13.8-4.1,20.7s2.8,9.9,2.8,9.9s78.6,5.3,77.2-1.6s-9.7-9.7-9.7-9.7l-19.3-4.1l-13.8-11
	l-27.6-6.9L752.2,485.6z"/>
<circle class="st1" cx="720.5" cy="40.2" r="26.2"/>
<polygon class="st1" points="739.8,51.2 743.9,89.8 734.3,107.7 710.8,81.5 708.1,59.5 "/>
<path class="st2" d="M731.5,91.2L709.9,74l-4.6,6.2L670.8,94l1.4,60.7c0,0,1.4,51,9.7,56.5l-3.4,4.8l82,3.4v-37.2l17.9-80
	l-31.7-17.9l-3.9-5.6L731.5,91.2z"/>
<path class="st2" d="M676.3,96.7l-2-4.2l-4.9,1.4c0,0-9.7,4.1-16.5,22.1s-26.2,57.9-26.2,57.9s-5.5,6.9-1.4,13.8s8.3,22.1,8.3,22.1
	s-4.1-1.4-1.4,4.1s2.8,11,11,9.7s24.8-5.5,23.4-9.7s-2.8-11-5.5-11s-6.9-20.7-6.9-20.7l2.8-11l20.7-24.8L676.3,96.7z"/>
<path class="st3" d="M723.2,20.9c0,0-4.1,0-4.1-1.4c0,0-14.4-0.4-20.3,6s-4.5-3.2-4.5-3.2s-15.2-6.9-2.8-13.8l1.4,1.4
	c0,0,2.8-4.1,12.4-5.5l-1.4-1.4c0,0,0-1.4,6.9-1.4s24.8-6.9,26.2,8.3c0,0,11-4.1,11,9.7s-1.4,20.7-1.4,20.7s-2.8-6.9-8.3-2.8
	S723.2,20.9,723.2,20.9z"/>
<ellipse class="st2" cx="106.5" cy="462.5" rx="106.5" ry="11"/>
<rect x="41.9" y="302.1" class="st2" width="129.2" height="160.5"/>
<rect x="60.6" y="358.2" class="st4" width="92.3" height="4.3"/>
<rect x="60.6" y="373.1" class="st4" width="92.3" height="4.3"/>
<rect x="60.6" y="388" class="st4" width="92.3" height="4.3"/>
<rect x="60.6" y="402.9" class="st4" width="92.3" height="4.3"/>
<path class="st2" d="M131.9,235.5c0,14-11.3,25.3-25.3,25.3c-14,0-25.3-11.3-25.3-25.3c0-14,11.3-25.3,25.3-25.3
	c8.7,0,16.7,4.4,21.3,11.8C130.5,226,131.9,230.7,131.9,235.5z"/>
<path class="st4" d="M127.9,221.9l-25,25c-1.6-2.4-10.3-13.7-10.3-13.7c1.1-1.1,2.3-2.2,3.6-3.2l7.2,9.7l21.5-21.5
	C126.1,219.3,127.1,220.6,127.9,221.9z"/>
<ellipse class="st2" cx="451.1" cy="456.1" rx="106.5" ry="11"/>
<rect x="386.5" y="295.7" class="st2" width="129.2" height="160.5"/>
<rect x="405.2" y="385" class="st4" width="92.3" height="4.3"/>
<rect x="405.2" y="399.9" class="st4" width="92.3" height="4.3"/>
<rect x="405.2" y="414.8" class="st4" width="92.3" height="4.3"/>
<rect x="405.2" y="429.7" class="st4" width="92.3" height="4.3"/>
<path class="st4" d="M433.5,352.8h-29.3c-2-11.6-2-23.4,0-35h29.3C430.1,329.2,430.1,341.4,433.5,352.8z"/>
<rect x="445.6" y="321.1" class="st4" width="54" height="3.6"/>
<rect x="445.6" y="333.9" class="st4" width="54" height="3.6"/>
<rect x="445.6" y="346.7" class="st4" width="54" height="3.6"/>
<rect x="445.6" y="359.4" class="st4" width="54" height="3.6"/>
<path class="st2" d="M476.5,229.8c0,14-11.3,25.3-25.3,25.3c-14,0-25.3-11.3-25.3-25.3c0-14,11.3-25.3,25.3-25.3
	c8.7,0,16.7,4.4,21.3,11.8C475.1,220.4,476.5,225.1,476.5,229.8z"/>
<path class="st4" d="M472.6,216.3l-25,25c-1.6-2.4-10.3-13.7-10.3-13.7c1.1-1.1,2.3-2.2,3.6-3.2l7.2,9.7l21.5-21.5
	C470.7,213.7,471.7,215,472.6,216.3z"/>
<ellipse class="st0" cx="280.8" cy="522.7" rx="124.8" ry="12.9"/>
<rect x="204.2" y="337.5" class="st5" width="151.4" height="188.1"/>
<rect x="225.9" y="377.5" class="st4" width="108.2" height="5"/>
<rect x="225.9" y="394.9" class="st4" width="108.2" height="5"/>
<rect x="225.9" y="412.4" class="st4" width="108.2" height="5"/>
<rect x="225.9" y="429.9" class="st4" width="108.2" height="5"/>
<rect x="225.9" y="447.4" class="st4" width="108.2" height="5"/>
<rect x="251.7" y="465.7" class="st4" width="56.6" height="20"/>
<path class="st5" d="M318.5,256.7c0,21-17,38-38,38c-21,0-38-17-38-38s17-38,38-38c13,0,25.1,6.7,32.1,17.7
	C316.5,242.5,318.5,249.5,318.5,256.7z"/>
<path class="st4" d="M312.6,236.4l-37.5,37.5c-2.4-3.6-15.5-20.6-15.5-20.6c1.7-1.7,3.5-3.3,5.4-4.7l10.9,14.5l32.3-32.3
	C309.9,232.4,311.3,234.3,312.6,236.4z"/>
</svg>
