<?xml version="1.0" encoding="utf-8"?>
<!-- Generator: Adobe Illustrator 23.0.1, SVG Export Plug-In . SVG Version: 6.00 Build 0)  -->
<svg version="1.1" id="ad1dd13e-2ec4-4c24-88e7-d38d592282c0"
	 xmlns="http://www.w3.org/2000/svg" xmlns:xlink="http://www.w3.org/1999/xlink" x="0px" y="0px" viewBox="0 0 578 675"
	 style="enable-background:new 0 0 578 675;" xml:space="preserve">
<style type="text/css">
	.st0{fill:#F2F2F2;stroke:#000000;stroke-width:0.75;stroke-miterlimit:10;}
	.st1{fill:#FFFFFF;stroke:#000000;stroke-width:0.75;stroke-miterlimit:10;}
	.st2{fill:#E6E6E6;stroke:#000000;stroke-width:0.75;stroke-miterlimit:10;}
	.st3{fill:#FFFFFF;}
	.st4{fill:#00BFA6;}
	.st5{fill:#CCCCCC;stroke:#000000;stroke-width:0.75;stroke-miterlimit:10;}
</style>
<title>sync_files</title>
<path class="st0" d="M383,0H13C5.8,0,0,5.8,0,13v500c0,7.2,5.8,13,13,13h370c7.2,0,13-5.8,13-13V13C396,5.8,390.2,0,383,0z"/>
<path class="st1" d="M24.4,16c-5,0.1-9,4.2-8.9,9.2v475.6c-0.1,5,3.9,9.1,8.9,9.2h347.1c5-0.1,9-4.2,8.9-9.2V25.2
	c0.1-5-3.9-9.1-8.9-9.2H24.4z"/>
<path class="st2" d="M42.5,38c-3.3,0-6,3-6,6.8v65.5c0,3.7,2.7,6.8,6,6.8h311c3.3,0,6-3,6-6.8V44.8c0-3.7-2.7-6.8-6-6.8H42.5z"/>
<path class="st2" d="M42.5,148.8c-3.4,0.1-6,2.8-6,6.2v139.9c0,3.4,2.6,6.1,6,6.2h311c3.4-0.1,6-2.8,6-6.2v-140c0-3.4-2.6-6.1-6-6.2
	h-311V148.8z"/>
<rect x="75" y="47.3" class="st3" width="246" height="14"/>
<rect x="75.5" y="76.8" class="st3" width="246" height="6.5"/>
<rect x="75.5" y="88.3" class="st3" width="246" height="6.5"/>
<rect x="75.5" y="99.8" class="st3" width="246" height="6.5"/>
<path class="st1" d="M221.2,301.3h113.2c2,0,3.6-1.6,3.6-3.6c0-1-0.4-1.9-1.1-2.6l-72.5-72.5c-1.4-1.4-3.7-1.4-5.2,0l-18,18
	c-3,3-7.8,3-10.8,0l0,0L174,184.2c-1.4-1.4-3.7-1.4-5.2,0L58.5,294.5c-1.4,1.4-1.4,3.7,0,5.2c0.7,0.7,1.6,1.1,2.6,1.1h160.2
	L221.2,301.3z"/>
<circle class="st3" cx="86.5" cy="181.8" r="14"/>
<path class="st2" d="M42.5,333.8c-3.4,0.1-6,2.8-6,6.2v139.9c0,3.4,2.6,6.1,6,6.2h311c3.4-0.1,6-2.8,6-6.2v-140c0-3.4-2.6-6.1-6-6.2
	h-311V333.8z"/>
<path class="st1" d="M221.2,486.3h113.2c2,0,3.6-1.6,3.6-3.6c0-1-0.4-1.9-1.1-2.6l-72.5-72.5c-1.4-1.4-3.7-1.4-5.2,0l-18,18
	c-3,3-7.8,3-10.8,0l0,0L174,369.2c-1.4-1.4-3.7-1.4-5.2,0L58.5,479.5c-1.4,1.4-1.4,3.7,0,5.2c0.7,0.7,1.6,1.1,2.6,1.1h160.2
	L221.2,486.3z"/>
<circle class="st1" cx="86.5" cy="366.8" r="14"/>
<path class="st2" d="M143,115c-5,0-9,4-9,9v500c0,5,4,9,9,9h370c5,0,9-4,9-9V124c0-5-4-9-9-9H143z"/>
<path class="st1" d="M153.9,129c-5,0.1-9,4.2-8.9,9.2v475.6c-0.1,5,3.9,9.1,8.9,9.2H501c5-0.1,9-4.2,8.9-9.2V138.2
	c0.1-5-3.9-9.1-8.9-9.2H153.9z"/>
<path class="st4" d="M208.3,198.2c-2.2,0-4,1.8-4,4v18.4c0,2.2,1.8,4,4,4h236c2.2,0,4-1.8,4-4v-18.4c0-2.2-1.8-4-4-4H208.3z"/>
<path class="st5" d="M206.8,258.9c-0.6,0-1,0.4-1,1v7.2c0,0.6,0.4,1,1,1h240c0.6,0,1-0.4,1-1v-7.2c0-0.6-0.4-1-1-1H206.8z"/>
<path class="st5" d="M206.8,282.2c-0.6,0-1,0.4-1,1v7.2c0,0.6,0.4,1,1,1h240c0.6,0,1-0.4,1-1v-7.2c0-0.6-0.4-1-1-1H206.8z"/>
<path class="st5" d="M206.8,305.5c-0.6,0-1,0.4-1,1v7.2c0,0.6,0.4,1,1,1h240c0.6,0,1-0.4,1-1v-7.2c0-0.6-0.4-1-1-1H206.8z"/>
<path class="st5" d="M206.3,352.1c-0.6,0-1,0.4-1,1v7.2c0,0.6,0.4,1,1,1h240c0.6,0,1-0.4,1-1v-7.2c0-0.6-0.4-1-1-1H206.3z"/>
<path class="st5" d="M206.3,375.4c-0.6,0-1,0.4-1,1v7.2c0,0.6,0.4,1,1,1h240c0.6,0,1-0.4,1-1v-7.2c0-0.6-0.4-1-1-1H206.3z"/>
<path class="st5" d="M206.3,398.7c-0.6,0-1,0.4-1,1v7.2c0,0.6,0.4,1,1,1h240c0.6,0,1-0.4,1-1v-7.2c0-0.6-0.4-1-1-1H206.3z"/>
<path class="st5" d="M206.3,422.1c-0.6,0-1,0.4-1,1v7.2c0,0.6,0.4,1,1,1h240c0.6,0,1-0.4,1-1v-7.2c0-0.6-0.4-1-1-1H206.3z"/>
<path class="st5" d="M206.3,445.4c-0.6,0-1,0.4-1,1v7.2c0,0.6,0.4,1,1,1h240c0.6,0,1-0.4,1-1v-7.2c0-0.6-0.4-1-1-1H206.3z"/>
<path class="st5" d="M206.3,468.7c-0.6,0-1,0.4-1,1v7.2c0,0.6,0.4,1,1,1h240c0.6,0,1-0.4,1-1v-7.2c0-0.6-0.4-1-1-1H206.3z"/>
<path class="st5" d="M206.3,492.1c-0.6,0-1,0.4-1,1v7.2c0,0.6,0.4,1,1,1h240c0.6,0,1-0.4,1-1v-7.2c0-0.6-0.4-1-1-1H206.3z"/>
<path class="st5" d="M206.3,515.4c-0.6,0-1,0.4-1,1v7.2c0,0.6,0.4,1,1,1h240c0.6,0,1-0.4,1-1v-7.2c0-0.6-0.4-1-1-1H206.3z"/>
<path class="st5" d="M206.3,538.7c-0.6,0-1,0.4-1,1v7.2c0,0.6,0.4,1,1,1h240c0.6,0,1-0.4,1-1v-7.2c0-0.6-0.4-1-1-1H206.3z"/>
<circle class="st4" cx="505" cy="602" r="73"/>
<polygon class="st3" points="498,632.8 476.2,604.7 488.9,594.8 499.2,608.1 534.2,571.2 545.9,582.3 "/>
</svg>
