<svg id="b7da5827-4560-4d63-9360-f6e9beb837fe" xmlns="http://www.w3.org/2000/svg" viewBox="0 0 540.18 416.36"><defs><style>.cls-1{fill:#3f3d56;}.cls-2{fill:#f2f2f2;}.cls-3{fill:#06eac3;}</style></defs><title>undraw_searching_p5ux</title><path class="cls-1" d="M457.1,447.46a122.82,122.82,0,1,1,57,45.75,39.72,39.72,0,1,1-57-45.75Z" transform="translate(-141.95 -105.87)"/><polygon class="cls-2" points="538.18 150.1 536.36 150.1 536.36 148.28 536 148.28 536 150.1 534.18 150.1 534.18 150.45 536 150.45 536 152.28 536.36 152.28 536.36 150.45 538.18 150.45 538.18 150.1"/><polygon class="cls-2" points="4 1.82 2.18 1.82 2.18 0 1.82 0 1.82 1.82 0 1.82 0 2.18 1.82 2.18 1.82 4 2.18 4 2.18 2.18 4 2.18 4 1.82"/><polygon class="cls-2" points="540.18 357.1 538.36 357.1 538.36 355.27 538 355.27 538 357.1 536.18 357.1 536.18 357.45 538 357.45 538 359.27 538.36 359.27 538.36 357.45 540.18 357.45 540.18 357.1"/><path class="cls-3" d="M563.65,307.28c28.16,0,47.53,15.62,47.53,38.06,0,14.87-7.21,25.15-21.1,33.34-13.06,7.58-17.49,13.14-17.49,22.75h0a5.94,5.94,0,0,1-5.93,5.93h-14.4a5.93,5.93,0,0,1-5.92-5.73l0-.73c-1.27-15.47,4.13-25.08,17.72-33,12.69-7.59,18-12.39,18-21.7S573,330,561.85,330c-8.5,0-15.23,4.14-18.31,10.89a13.28,13.28,0,0,1-12.12,7.58h0c-9.75,0-16.19-10.37-11.63-19C527,315.87,542.23,307.28,563.65,307.28ZM543.91,436c0-8.63,7.21-15.46,16.07-15.46s16.14,6.75,16.14,15.46-7.21,15.47-16.14,15.47S543.91,444.67,543.91,436Z" transform="translate(-141.95 -105.87)"/></svg>